<mxfile host="app.diagrams.net" agent="Mozilla/5.0 (Windows NT 10.0; Win64; x64) AppleWebKit/537.36 (KHTML, like Gecko) Chrome/134.0.0.0 Safari/537.36" version="26.1.1">
  <diagram name="Page-1" id="Pr4U5uQVB9eQ6gSs403m">
    <mxGraphModel dx="1379" dy="549" grid="1" gridSize="10" guides="1" tooltips="1" connect="1" arrows="1" fold="1" page="1" pageScale="1" pageWidth="827" pageHeight="1169" math="0" shadow="0">
      <root>
        <mxCell id="0" />
        <mxCell id="1" parent="0" />
        <mxCell id="QgZUHupVfk4ugXioLIiO-27" value="" style="edgeStyle=orthogonalEdgeStyle;rounded=0;orthogonalLoop=1;jettySize=auto;html=1;" edge="1" parent="1" source="QgZUHupVfk4ugXioLIiO-1">
          <mxGeometry relative="1" as="geometry">
            <mxPoint x="255" y="210" as="targetPoint" />
          </mxGeometry>
        </mxCell>
        <mxCell id="QgZUHupVfk4ugXioLIiO-28" value="[0 black,0 white]" style="edgeLabel;html=1;align=center;verticalAlign=middle;resizable=0;points=[];" vertex="1" connectable="0" parent="QgZUHupVfk4ugXioLIiO-27">
          <mxGeometry x="-0.5284" y="-3" relative="1" as="geometry">
            <mxPoint as="offset" />
          </mxGeometry>
        </mxCell>
        <mxCell id="QgZUHupVfk4ugXioLIiO-1" value="(Guess #1:&amp;nbsp; &amp;nbsp; &amp;nbsp; &amp;nbsp; &amp;nbsp; &amp;nbsp;)" style="rounded=1;whiteSpace=wrap;html=1;" vertex="1" parent="1">
          <mxGeometry x="170" y="80" width="120" height="60" as="geometry" />
        </mxCell>
        <mxCell id="QgZUHupVfk4ugXioLIiO-2" value="" style="ellipse;whiteSpace=wrap;html=1;aspect=fixed;fillColor=#FF0000;" vertex="1" parent="1">
          <mxGeometry x="260" y="105" width="10" height="10" as="geometry" />
        </mxCell>
        <mxCell id="QgZUHupVfk4ugXioLIiO-8" value="" style="ellipse;whiteSpace=wrap;html=1;aspect=fixed;fillColor=#FF0000;" vertex="1" parent="1">
          <mxGeometry x="240" y="105" width="10" height="10" as="geometry" />
        </mxCell>
        <mxCell id="QgZUHupVfk4ugXioLIiO-10" value="&lt;b&gt;AND-OR Tree Diagram (Outline)&lt;/b&gt;" style="text;html=1;align=center;verticalAlign=middle;whiteSpace=wrap;rounded=0;" vertex="1" parent="1">
          <mxGeometry x="135" y="30" width="190" height="30" as="geometry" />
        </mxCell>
        <mxCell id="QgZUHupVfk4ugXioLIiO-11" value="" style="group" vertex="1" connectable="0" parent="1">
          <mxGeometry x="40" y="160" width="50" height="30" as="geometry" />
        </mxCell>
        <mxCell id="QgZUHupVfk4ugXioLIiO-12" value="" style="verticalLabelPosition=bottom;verticalAlign=top;html=1;shape=mxgraph.basic.rect;fillColor2=none;strokeWidth=1;size=20;indent=5;fillColor=#BBBBBB;" vertex="1" parent="QgZUHupVfk4ugXioLIiO-11">
          <mxGeometry width="50" height="30" as="geometry" />
        </mxCell>
        <mxCell id="QgZUHupVfk4ugXioLIiO-13" value="" style="ellipse;whiteSpace=wrap;html=1;aspect=fixed;fillColor=#000000;" vertex="1" parent="QgZUHupVfk4ugXioLIiO-11">
          <mxGeometry x="10" y="10" width="10" height="10" as="geometry" />
        </mxCell>
        <mxCell id="QgZUHupVfk4ugXioLIiO-14" value="" style="ellipse;whiteSpace=wrap;html=1;aspect=fixed;fillColor=#000000;" vertex="1" parent="QgZUHupVfk4ugXioLIiO-11">
          <mxGeometry x="30" y="10" width="10" height="10" as="geometry" />
        </mxCell>
        <mxCell id="QgZUHupVfk4ugXioLIiO-19" value="" style="group" vertex="1" connectable="0" parent="1">
          <mxGeometry x="430" y="160" width="50" height="30" as="geometry" />
        </mxCell>
        <mxCell id="QgZUHupVfk4ugXioLIiO-20" value="" style="verticalLabelPosition=bottom;verticalAlign=top;html=1;shape=mxgraph.basic.rect;fillColor2=none;strokeWidth=1;size=20;indent=5;fillColor=#BBBBBB;" vertex="1" parent="QgZUHupVfk4ugXioLIiO-19">
          <mxGeometry width="50" height="30" as="geometry" />
        </mxCell>
        <mxCell id="QgZUHupVfk4ugXioLIiO-21" value="" style="ellipse;whiteSpace=wrap;html=1;aspect=fixed;fillColor=#000000;" vertex="1" parent="QgZUHupVfk4ugXioLIiO-19">
          <mxGeometry x="10" y="10" width="10" height="10" as="geometry" />
        </mxCell>
        <mxCell id="QgZUHupVfk4ugXioLIiO-22" value="" style="ellipse;whiteSpace=wrap;html=1;aspect=fixed;fillColor=#BBBBBB;" vertex="1" parent="QgZUHupVfk4ugXioLIiO-19">
          <mxGeometry x="30" y="10" width="10" height="10" as="geometry" />
        </mxCell>
        <mxCell id="QgZUHupVfk4ugXioLIiO-23" value="&lt;div&gt;win&lt;/div&gt;&lt;div&gt;&lt;br&gt;&lt;/div&gt;" style="ellipse;whiteSpace=wrap;html=1;verticalAlign=top;fillColor=#BBBBBB;strokeWidth=1;" vertex="1" parent="1">
          <mxGeometry x="10" y="280" width="35" height="25" as="geometry" />
        </mxCell>
        <mxCell id="QgZUHupVfk4ugXioLIiO-24" value="" style="edgeStyle=orthogonalEdgeStyle;rounded=0;orthogonalLoop=1;jettySize=auto;html=1;" edge="1" parent="1" source="QgZUHupVfk4ugXioLIiO-12" target="QgZUHupVfk4ugXioLIiO-23">
          <mxGeometry relative="1" as="geometry" />
        </mxCell>
        <mxCell id="QgZUHupVfk4ugXioLIiO-25" value="[2 black pegs]" style="edgeLabel;html=1;align=center;verticalAlign=middle;resizable=0;points=[];" vertex="1" connectable="0" parent="QgZUHupVfk4ugXioLIiO-24">
          <mxGeometry x="-0.5257" y="3" relative="1" as="geometry">
            <mxPoint as="offset" />
          </mxGeometry>
        </mxCell>
        <mxCell id="QgZUHupVfk4ugXioLIiO-30" value="" style="edgeStyle=orthogonalEdgeStyle;rounded=0;orthogonalLoop=1;jettySize=auto;html=1;" edge="1" parent="1" target="QgZUHupVfk4ugXioLIiO-29">
          <mxGeometry relative="1" as="geometry">
            <mxPoint x="255" y="240" as="sourcePoint" />
          </mxGeometry>
        </mxCell>
        <mxCell id="QgZUHupVfk4ugXioLIiO-33" value="" style="edgeStyle=orthogonalEdgeStyle;rounded=0;orthogonalLoop=1;jettySize=auto;html=1;" edge="1" parent="1" source="QgZUHupVfk4ugXioLIiO-29" target="QgZUHupVfk4ugXioLIiO-32">
          <mxGeometry relative="1" as="geometry" />
        </mxCell>
        <mxCell id="QgZUHupVfk4ugXioLIiO-29" value="&lt;font style=&quot;font-size: 10px;&quot;&gt;(Guess #2: Blue, Yellow)&lt;/font&gt;" style="rhombus;whiteSpace=wrap;html=1;rounded=1;fillColor=#BBBBBB;" vertex="1" parent="1">
          <mxGeometry x="105" y="295" width="135" height="80" as="geometry" />
        </mxCell>
        <mxCell id="QgZUHupVfk4ugXioLIiO-31" style="edgeStyle=orthogonalEdgeStyle;rounded=0;orthogonalLoop=1;jettySize=auto;html=1;entryX=0;entryY=0.25;entryDx=0;entryDy=0;" edge="1" parent="1" source="QgZUHupVfk4ugXioLIiO-12" target="QgZUHupVfk4ugXioLIiO-1">
          <mxGeometry relative="1" as="geometry" />
        </mxCell>
        <mxCell id="QgZUHupVfk4ugXioLIiO-35" value="" style="edgeStyle=orthogonalEdgeStyle;rounded=0;orthogonalLoop=1;jettySize=auto;html=1;" edge="1" parent="1" source="QgZUHupVfk4ugXioLIiO-32" target="QgZUHupVfk4ugXioLIiO-34">
          <mxGeometry relative="1" as="geometry" />
        </mxCell>
        <mxCell id="QgZUHupVfk4ugXioLIiO-32" value="[Feedback]&amp;nbsp;" style="whiteSpace=wrap;html=1;fillColor=#BBBBBB;rounded=1;" vertex="1" parent="1">
          <mxGeometry x="112.5" y="430" width="120" height="60" as="geometry" />
        </mxCell>
        <mxCell id="QgZUHupVfk4ugXioLIiO-34" value="&lt;font style=&quot;font-size: 10px;&quot;&gt;(Guess #3: Win)&amp;nbsp;&lt;/font&gt;" style="rhombus;whiteSpace=wrap;html=1;fillColor=#BBBBBB;rounded=1;" vertex="1" parent="1">
          <mxGeometry x="132.5" y="560" width="117.5" height="100" as="geometry" />
        </mxCell>
        <mxCell id="QgZUHupVfk4ugXioLIiO-36" value="" style="ellipse;whiteSpace=wrap;html=1;aspect=fixed;fillColor=#0000FF;" vertex="1" parent="1">
          <mxGeometry x="170" y="320" width="10" height="10" as="geometry" />
        </mxCell>
        <mxCell id="QgZUHupVfk4ugXioLIiO-37" value="" style="ellipse;whiteSpace=wrap;html=1;aspect=fixed;fillColor=#FF0000;" vertex="1" parent="1">
          <mxGeometry x="200" y="320" width="10" height="10" as="geometry" />
        </mxCell>
        <mxCell id="QgZUHupVfk4ugXioLIiO-38" style="edgeStyle=orthogonalEdgeStyle;rounded=0;orthogonalLoop=1;jettySize=auto;html=1;entryX=1;entryY=0.25;entryDx=0;entryDy=0;" edge="1" parent="1" source="QgZUHupVfk4ugXioLIiO-20" target="QgZUHupVfk4ugXioLIiO-1">
          <mxGeometry relative="1" as="geometry" />
        </mxCell>
        <mxCell id="QgZUHupVfk4ugXioLIiO-39" value="[1 black,0 white]" style="edgeLabel;html=1;align=center;verticalAlign=middle;resizable=0;points=[];" vertex="1" connectable="0" parent="QgZUHupVfk4ugXioLIiO-38">
          <mxGeometry x="0.1129" y="1" relative="1" as="geometry">
            <mxPoint as="offset" />
          </mxGeometry>
        </mxCell>
        <mxCell id="QgZUHupVfk4ugXioLIiO-53" value="" style="edgeStyle=orthogonalEdgeStyle;rounded=0;orthogonalLoop=1;jettySize=auto;html=1;" edge="1" parent="1" source="QgZUHupVfk4ugXioLIiO-42" target="QgZUHupVfk4ugXioLIiO-52">
          <mxGeometry relative="1" as="geometry" />
        </mxCell>
        <mxCell id="QgZUHupVfk4ugXioLIiO-54" value="[&amp;nbsp;Red, Blue/Red, Yellow ]" style="edgeLabel;html=1;align=center;verticalAlign=middle;resizable=0;points=[];" vertex="1" connectable="0" parent="QgZUHupVfk4ugXioLIiO-53">
          <mxGeometry x="-0.1773" y="-5" relative="1" as="geometry">
            <mxPoint as="offset" />
          </mxGeometry>
        </mxCell>
        <mxCell id="QgZUHupVfk4ugXioLIiO-42" value="&lt;div&gt;&lt;font style=&quot;font-size: 10px;&quot;&gt;&amp;nbsp;&lt;/font&gt;&lt;/div&gt;&lt;div&gt;&lt;font style=&quot;font-size: 10px;&quot;&gt;&lt;br&gt;&lt;/font&gt;&lt;/div&gt;&lt;div&gt;&lt;font style=&quot;font-size: 10px;&quot;&gt;&lt;br&gt;&lt;/font&gt;&lt;/div&gt;&lt;font style=&quot;font-size: 10px;&quot;&gt;(Guess #2:&amp;nbsp; &amp;nbsp; &amp;nbsp; &amp;nbsp; &amp;nbsp; &amp;nbsp; &amp;nbsp; &amp;nbsp; &amp;nbsp; &amp;nbsp; &amp;nbsp; )&lt;/font&gt;" style="rhombus;whiteSpace=wrap;html=1;verticalAlign=top;fillColor=#BBBBBB;strokeWidth=1;" vertex="1" parent="1">
          <mxGeometry x="415" y="245" width="145" height="115" as="geometry" />
        </mxCell>
        <mxCell id="QgZUHupVfk4ugXioLIiO-43" value="" style="edgeStyle=orthogonalEdgeStyle;rounded=0;orthogonalLoop=1;jettySize=auto;html=1;" edge="1" parent="1" source="QgZUHupVfk4ugXioLIiO-20" target="QgZUHupVfk4ugXioLIiO-42">
          <mxGeometry relative="1" as="geometry" />
        </mxCell>
        <mxCell id="QgZUHupVfk4ugXioLIiO-44" value="" style="ellipse;whiteSpace=wrap;html=1;aspect=fixed;fillColor=#0000FF;" vertex="1" parent="1">
          <mxGeometry x="510" y="297.5" width="10" height="10" as="geometry" />
        </mxCell>
        <mxCell id="QgZUHupVfk4ugXioLIiO-45" value="" style="ellipse;whiteSpace=wrap;html=1;aspect=fixed;fillColor=#FF0000;" vertex="1" parent="1">
          <mxGeometry x="490" y="297.5" width="10" height="10" as="geometry" />
        </mxCell>
        <mxCell id="QgZUHupVfk4ugXioLIiO-50" value="" style="ellipse;whiteSpace=wrap;html=1;aspect=fixed;fillColor=#FFFF00;" vertex="1" parent="1">
          <mxGeometry x="530" y="297.5" width="10" height="10" as="geometry" />
        </mxCell>
        <mxCell id="QgZUHupVfk4ugXioLIiO-56" value="" style="edgeStyle=orthogonalEdgeStyle;rounded=0;orthogonalLoop=1;jettySize=auto;html=1;" edge="1" parent="1" source="QgZUHupVfk4ugXioLIiO-52" target="QgZUHupVfk4ugXioLIiO-55">
          <mxGeometry relative="1" as="geometry" />
        </mxCell>
        <mxCell id="QgZUHupVfk4ugXioLIiO-52" value="&lt;div&gt;&lt;br&gt;&lt;/div&gt;&lt;div&gt;[Feedback]&lt;/div&gt;" style="whiteSpace=wrap;html=1;verticalAlign=top;fillColor=#BBBBBB;strokeWidth=1;" vertex="1" parent="1">
          <mxGeometry x="427.5" y="467.5" width="120" height="60" as="geometry" />
        </mxCell>
        <mxCell id="QgZUHupVfk4ugXioLIiO-55" value="&lt;div&gt;&lt;font style=&quot;font-size: 10px;&quot;&gt;&lt;br&gt;&lt;/font&gt;&lt;/div&gt;&lt;div&gt;&lt;font style=&quot;font-size: 10px;&quot;&gt;&lt;br&gt;&lt;/font&gt;&lt;/div&gt;&lt;div&gt;&lt;font style=&quot;font-size: 10px;&quot;&gt;(Guess #3: Win)&lt;/font&gt;&lt;/div&gt;" style="rhombus;whiteSpace=wrap;html=1;verticalAlign=top;fillColor=#BBBBBB;strokeWidth=1;" vertex="1" parent="1">
          <mxGeometry x="447.5" y="597.5" width="80" height="80" as="geometry" />
        </mxCell>
        <mxCell id="QgZUHupVfk4ugXioLIiO-57" value="" style="group" vertex="1" connectable="0" parent="1">
          <mxGeometry x="232.5" y="210" width="50" height="30" as="geometry" />
        </mxCell>
        <mxCell id="QgZUHupVfk4ugXioLIiO-58" value="" style="verticalLabelPosition=bottom;verticalAlign=top;html=1;shape=mxgraph.basic.rect;fillColor2=none;strokeWidth=1;size=20;indent=5;fillColor=#BBBBBB;" vertex="1" parent="QgZUHupVfk4ugXioLIiO-57">
          <mxGeometry width="50" height="30" as="geometry" />
        </mxCell>
        <mxCell id="QgZUHupVfk4ugXioLIiO-59" value="" style="ellipse;whiteSpace=wrap;html=1;aspect=fixed;fillColor=#BBBBBB;" vertex="1" parent="QgZUHupVfk4ugXioLIiO-57">
          <mxGeometry x="10" y="10" width="10" height="10" as="geometry" />
        </mxCell>
        <mxCell id="QgZUHupVfk4ugXioLIiO-60" value="" style="ellipse;whiteSpace=wrap;html=1;aspect=fixed;fillColor=#BBBBBB;" vertex="1" parent="QgZUHupVfk4ugXioLIiO-57">
          <mxGeometry x="30" y="10" width="10" height="10" as="geometry" />
        </mxCell>
      </root>
    </mxGraphModel>
  </diagram>
</mxfile>
